<svg xmlns="http://www.w3.org/2000/svg" xmlns:xlink="http://www.w3.org/1999/xlink" width="158" zoomAndPan="magnify" viewBox="0 0 118.5 36.000001" height="48" preserveAspectRatio="xMidYMid meet" version="1.0"><defs><clipPath id="1175ddcd14"><path d="M 3.238281 6.246094 L 27 6.246094 L 27 29.597656 L 3.238281 29.597656 Z M 3.238281 6.246094 " clip-rule="nonzero"/></clipPath><clipPath id="1c8ad067e7"><path d="M 109 10 L 114.886719 10 L 114.886719 18 L 109 18 Z M 109 10 " clip-rule="nonzero"/></clipPath><clipPath id="df6a3416b8"><path d="M 110 22 L 114.886719 22 L 114.886719 28 L 110 28 Z M 110 22 " clip-rule="nonzero"/></clipPath></defs><g clip-path="url(#1175ddcd14)"><path fill="#000000" d="M 14.894531 6.246094 C 8.457031 6.246094 3.238281 11.464844 3.238281 17.898438 C 3.238281 24.335938 8.457031 29.550781 14.894531 29.550781 C 21.328125 29.550781 26.546875 24.335938 26.546875 17.898438 C 26.546875 11.464844 21.332031 6.246094 14.894531 6.246094 Z M 14.894531 27.734375 C 9.472656 27.734375 5.058594 23.320312 5.058594 17.898438 C 5.058594 12.480469 9.472656 8.066406 14.894531 8.066406 C 20.3125 8.066406 24.726562 12.480469 24.726562 17.898438 C 24.726562 23.320312 20.320312 27.734375 14.894531 27.734375 Z M 19.265625 13.347656 L 10.519531 13.347656 C 9.78125 13.347656 9.101562 13.75 8.753906 14.40625 C 8.40625 15.058594 8.445312 15.84375 8.855469 16.460938 L 13.226562 23.019531 C 13.597656 23.574219 14.222656 23.910156 14.894531 23.910156 C 15.566406 23.910156 16.1875 23.574219 16.558594 23.019531 L 20.929688 16.460938 C 21.339844 15.84375 21.382812 15.058594 21.03125 14.40625 C 20.683594 13.75 20.003906 13.347656 19.265625 13.347656 Z M 19.417969 15.449219 L 15.046875 22.003906 C 14.980469 22.105469 14.8125 22.105469 14.746094 22.003906 L 10.371094 15.449219 C 10.339844 15.394531 10.332031 15.320312 10.359375 15.261719 C 10.394531 15.199219 10.453125 15.167969 10.519531 15.167969 L 19.257812 15.167969 C 19.324219 15.167969 19.386719 15.199219 19.417969 15.261719 C 19.453125 15.320312 19.453125 15.394531 19.417969 15.449219 Z M 19.417969 15.449219 " fill-opacity="1" fill-rule="nonzero"/></g><path fill="#000000" d="M 33.703125 16.558594 L 33.703125 9.246094 C 33.703125 8.765625 34.003906 8.449219 34.460938 8.449219 L 37.390625 8.449219 C 39.332031 8.449219 40.394531 9.257812 40.394531 10.761719 C 40.394531 11.722656 39.84375 12.371094 38.824219 12.675781 C 40.148438 12.976562 40.75 13.820312 40.75 14.867188 C 40.75 16.53125 39.691406 17.359375 37.363281 17.359375 L 34.460938 17.359375 C 34.003906 17.359375 33.703125 17.039062 33.703125 16.558594 Z M 37.214844 12.332031 C 38.261719 12.332031 38.925781 11.78125 38.925781 10.925781 C 38.925781 10.046875 38.347656 9.589844 37.1875 9.589844 L 35.105469 9.589844 L 35.105469 12.332031 Z M 37.269531 16.214844 C 38.703125 16.214844 39.296875 15.785156 39.296875 14.753906 C 39.296875 13.820312 38.632812 13.347656 37.3125 13.347656 L 35.105469 13.347656 L 35.105469 16.214844 Z M 37.269531 16.214844 " fill-opacity="1" fill-rule="nonzero"/><path fill="#000000" d="M 41.734375 14.042969 C 41.734375 12.015625 43.167969 10.570312 45.214844 10.570312 C 47.242188 10.570312 48.675781 12.03125 48.675781 14.066406 C 48.675781 16.09375 47.242188 17.539062 45.203125 17.539062 C 43.152344 17.539062 41.734375 16.09375 41.734375 14.042969 Z M 47.40625 14.066406 C 47.40625 12.691406 46.484375 11.6875 45.203125 11.6875 C 43.933594 11.6875 42.988281 12.679688 42.988281 14.042969 C 42.988281 15.40625 43.941406 16.421875 45.203125 16.421875 C 46.46875 16.421875 47.40625 15.417969 47.40625 14.066406 Z M 47.40625 14.066406 " fill-opacity="1" fill-rule="nonzero"/><path fill="#000000" d="M 49.554688 14.042969 C 49.554688 12.015625 50.988281 10.570312 53.035156 10.570312 C 55.0625 10.570312 56.488281 12.03125 56.488281 14.066406 C 56.488281 16.09375 55.054688 17.539062 53.019531 17.539062 C 50.972656 17.539062 49.554688 16.09375 49.554688 14.042969 Z M 55.230469 14.066406 C 55.230469 12.691406 54.308594 11.6875 53.03125 11.6875 C 51.757812 11.6875 50.8125 12.679688 50.8125 14.042969 C 50.8125 15.40625 51.765625 16.421875 53.03125 16.421875 C 54.292969 16.421875 55.230469 15.417969 55.230469 14.066406 Z M 55.230469 14.066406 " fill-opacity="1" fill-rule="nonzero"/><path fill="#000000" d="M 57.78125 16.765625 L 57.78125 8.050781 C 57.78125 8.007812 58.003906 7.898438 58.277344 7.898438 C 58.691406 7.898438 59.144531 8.121094 59.144531 9.066406 L 59.144531 13.707031 L 61.445312 11.132812 C 61.722656 10.789062 62.011719 10.664062 62.257812 10.664062 C 62.738281 10.664062 63.011719 11.132812 62.960938 11.207031 L 60.546875 13.859375 L 63.332031 16.875 C 63.371094 16.945312 63.070312 17.425781 62.585938 17.425781 C 62.324219 17.425781 62.0625 17.316406 61.773438 16.957031 L 59.140625 14.121094 L 59.140625 16.765625 C 59.140625 17.261719 58.875 17.410156 58.53125 17.410156 L 58.382812 17.410156 C 58.023438 17.417969 57.78125 17.261719 57.78125 16.765625 Z M 57.78125 16.765625 " fill-opacity="1" fill-rule="nonzero"/><path fill="#000000" d="M 69.234375 16.859375 L 66.796875 13.871094 L 65.816406 13.871094 L 65.816406 16.765625 C 65.816406 17.152344 65.609375 17.410156 65.199219 17.410156 L 65.007812 17.410156 C 64.621094 17.410156 64.414062 17.152344 64.414062 16.679688 L 64.414062 9.246094 C 64.414062 8.765625 64.714844 8.449219 65.171875 8.449219 L 67.707031 8.449219 C 69.878906 8.449219 71.039062 9.359375 71.039062 11.121094 C 71.039062 12.632812 70.101562 13.601562 68.378906 13.738281 L 70.980469 16.839844 C 71.050781 16.917969 70.75 17.417969 70.15625 17.417969 C 69.789062 17.417969 69.535156 17.261719 69.234375 16.859375 Z M 65.804688 12.761719 L 67.679688 12.761719 C 68.984375 12.761719 69.605469 12.152344 69.605469 11.1875 C 69.605469 10.15625 68.945312 9.617188 67.636719 9.617188 L 65.804688 9.617188 Z M 65.804688 12.761719 " fill-opacity="1" fill-rule="nonzero"/><path fill="#000000" d="M 72.023438 14.082031 C 72.023438 12.074219 73.457031 10.570312 75.410156 10.570312 C 77.324219 10.570312 78.589844 11.917969 78.589844 13.902344 L 78.589844 14.015625 C 78.589844 14.304688 78.492188 14.410156 78.175781 14.410156 L 73.289062 14.410156 C 73.382812 15.640625 74.292969 16.464844 75.546875 16.464844 C 76.707031 16.464844 77.28125 15.957031 77.625 15.363281 C 77.652344 15.335938 78.339844 15.457031 78.339844 16.039062 C 78.339844 16.617188 77.324219 17.542969 75.515625 17.542969 C 73.425781 17.539062 72.023438 16.148438 72.023438 14.082031 Z M 73.296875 13.492188 L 77.265625 13.492188 C 77.199219 12.347656 76.492188 11.601562 75.394531 11.601562 C 74.304688 11.601562 73.46875 12.390625 73.296875 13.492188 Z M 73.296875 13.492188 " fill-opacity="1" fill-rule="nonzero"/><path fill="#000000" d="M 79.261719 11.34375 L 79.261719 11.246094 C 79.261719 10.917969 79.429688 10.738281 79.851562 10.738281 L 80.335938 10.738281 L 80.335938 9.71875 C 80.335938 9.246094 80.566406 9.074219 80.9375 9.074219 L 81.074219 9.074219 C 81.433594 9.074219 81.667969 9.210938 81.667969 9.71875 L 81.667969 10.734375 L 83.171875 10.734375 C 83.597656 10.734375 83.746094 10.898438 83.746094 11.230469 L 83.746094 11.328125 C 83.746094 11.671875 83.582031 11.851562 83.15625 11.851562 L 81.664062 11.851562 L 81.664062 15.199219 C 81.664062 16.023438 81.894531 16.425781 82.546875 16.425781 C 82.976562 16.425781 83.277344 16.238281 83.484375 15.960938 C 83.523438 15.917969 83.867188 16.113281 83.867188 16.539062 C 83.867188 17.046875 83.304688 17.542969 82.328125 17.542969 C 80.964844 17.542969 80.34375 16.785156 80.34375 15.351562 L 80.34375 11.855469 L 79.863281 11.855469 C 79.429688 11.851562 79.261719 11.671875 79.261719 11.34375 Z M 79.261719 11.34375 " fill-opacity="1" fill-rule="nonzero"/><path fill="#000000" d="M 86.304688 11.824219 C 86.589844 11.015625 87.144531 10.570312 87.980469 10.570312 C 88.667969 10.570312 89.070312 10.902344 89.070312 11.453125 C 89.070312 11.976562 88.683594 12.183594 88.65625 12.15625 C 88.449219 11.992188 88.1875 11.867188 87.816406 11.867188 C 86.742188 11.867188 86.3125 12.914062 86.3125 14.441406 L 86.3125 16.769531 C 86.3125 17.269531 86.054688 17.417969 85.710938 17.417969 L 85.558594 17.417969 C 85.195312 17.417969 84.949219 17.261719 84.949219 16.769531 L 84.949219 10.820312 C 84.949219 10.777344 85.171875 10.664062 85.445312 10.664062 C 85.847656 10.664062 86.285156 10.886719 86.304688 11.824219 Z M 86.304688 11.824219 " fill-opacity="1" fill-rule="nonzero"/><path fill="#000000" d="M 89.59375 14.082031 C 89.59375 12.074219 91.027344 10.570312 92.980469 10.570312 C 94.894531 10.570312 96.160156 11.917969 96.160156 13.902344 L 96.160156 14.015625 C 96.160156 14.304688 96.0625 14.410156 95.746094 14.410156 L 90.859375 14.410156 C 90.953125 15.640625 91.863281 16.464844 93.117188 16.464844 C 94.269531 16.464844 94.851562 15.957031 95.195312 15.363281 C 95.222656 15.335938 95.910156 15.457031 95.910156 16.039062 C 95.910156 16.617188 94.890625 17.542969 93.085938 17.542969 C 91 17.539062 89.59375 16.148438 89.59375 14.082031 Z M 90.875 13.492188 L 94.84375 13.492188 C 94.773438 12.347656 94.070312 11.601562 92.96875 11.601562 C 91.878906 11.601562 91.042969 12.390625 90.875 13.492188 Z M 90.875 13.492188 " fill-opacity="1" fill-rule="nonzero"/><path fill="#000000" d="M 97.046875 15.621094 C 97.046875 14.09375 98.507812 13.433594 101.496094 13.378906 L 101.675781 13.378906 L 101.675781 13.242188 C 101.675781 12.238281 101.101562 11.6875 100.039062 11.6875 C 99.03125 11.6875 98.441406 12.210938 98.136719 12.820312 C 98.136719 12.835938 97.296875 12.820312 97.296875 12.15625 C 97.296875 11.523438 98.261719 10.574219 100.132812 10.574219 C 102.003906 10.574219 103.027344 11.539062 103.027344 13.222656 L 103.027344 17.285156 C 103.027344 17.351562 102.777344 17.4375 102.53125 17.4375 C 102.046875 17.4375 101.703125 17.171875 101.6875 16.378906 C 101.179688 17.09375 100.3125 17.523438 99.308594 17.523438 C 97.890625 17.511719 97.046875 16.753906 97.046875 15.621094 Z M 101.671875 14.746094 L 101.671875 14.238281 L 101.300781 14.246094 C 99.371094 14.316406 98.382812 14.675781 98.382812 15.570312 C 98.382812 16.164062 98.847656 16.53125 99.636719 16.53125 C 100.820312 16.53125 101.671875 15.785156 101.671875 14.746094 Z M 101.671875 14.746094 " fill-opacity="1" fill-rule="nonzero"/><path fill="#000000" d="M 103.921875 11.34375 L 103.921875 11.246094 C 103.921875 10.917969 104.085938 10.738281 104.511719 10.738281 L 104.996094 10.738281 L 104.996094 9.71875 C 104.996094 9.246094 105.226562 9.074219 105.597656 9.074219 L 105.734375 9.074219 C 106.09375 9.074219 106.328125 9.210938 106.328125 9.71875 L 106.328125 10.734375 L 107.832031 10.734375 C 108.257812 10.734375 108.40625 10.898438 108.40625 11.230469 L 108.40625 11.328125 C 108.40625 11.671875 108.242188 11.851562 107.816406 11.851562 L 106.316406 11.851562 L 106.316406 15.199219 C 106.316406 16.023438 106.550781 16.425781 107.199219 16.425781 C 107.628906 16.425781 107.929688 16.238281 108.136719 15.960938 C 108.179688 15.917969 108.523438 16.113281 108.523438 16.539062 C 108.523438 17.046875 107.957031 17.542969 106.984375 17.542969 C 105.617188 17.542969 105 16.785156 105 15.351562 L 105 11.855469 L 104.519531 11.855469 C 104.085938 11.851562 103.921875 11.671875 103.921875 11.34375 Z M 103.921875 11.34375 " fill-opacity="1" fill-rule="nonzero"/><g clip-path="url(#1c8ad067e7)"><path fill="#000000" d="M 109.125 16.121094 C 109.125 15.691406 109.625 15.476562 109.667969 15.5 C 110.105469 16.066406 110.851562 16.492188 111.894531 16.492188 C 112.832031 16.492188 113.355469 16.148438 113.355469 15.597656 C 113.355469 14.925781 112.734375 14.796875 111.644531 14.566406 C 110.667969 14.359375 109.316406 14.058594 109.316406 12.648438 C 109.316406 11.410156 110.347656 10.570312 111.960938 10.570312 C 113.65625 10.570312 114.507812 11.285156 114.507812 11.910156 C 114.507812 12.335938 113.984375 12.585938 113.957031 12.542969 C 113.542969 11.992188 112.855469 11.605469 112.015625 11.605469 C 111.078125 11.605469 110.582031 11.96875 110.582031 12.515625 C 110.582031 13.121094 111.160156 13.261719 112.230469 13.496094 C 113.253906 13.71875 114.671875 14.019531 114.671875 15.453125 C 114.671875 16.71875 113.625 17.53125 111.921875 17.53125 C 110.078125 17.527344 109.125 16.753906 109.125 16.121094 Z M 109.125 16.121094 " fill-opacity="1" fill-rule="nonzero"/></g><path fill="#000000" d="M 35.289062 26.984375 L 33.785156 21.515625 L 34.699219 21.515625 L 35.917969 26.25 L 35.691406 26.25 L 36.953125 21.515625 L 37.855469 21.515625 L 39.121094 26.25 L 38.886719 26.25 L 40.109375 21.515625 L 41.019531 21.515625 L 39.523438 26.984375 L 38.546875 26.984375 L 37.277344 22.324219 L 37.535156 22.324219 L 36.257812 26.984375 Z M 35.289062 26.984375 " fill-opacity="1" fill-rule="nonzero"/><path fill="#000000" d="M 43.242188 27.070312 C 42.859375 27.070312 42.511719 26.980469 42.191406 26.800781 C 41.878906 26.617188 41.628906 26.371094 41.445312 26.058594 C 41.257812 25.746094 41.164062 25.390625 41.164062 24.996094 C 41.164062 24.59375 41.257812 24.238281 41.445312 23.929688 C 41.628906 23.617188 41.878906 23.371094 42.191406 23.195312 C 42.507812 23.015625 42.855469 22.925781 43.242188 22.925781 C 43.632812 22.925781 43.984375 23.015625 44.292969 23.195312 C 44.605469 23.371094 44.851562 23.617188 45.035156 23.929688 C 45.21875 24.238281 45.3125 24.59375 45.3125 24.996094 C 45.3125 25.394531 45.21875 25.753906 45.035156 26.066406 C 44.847656 26.378906 44.597656 26.625 44.285156 26.808594 C 43.972656 26.984375 43.625 27.070312 43.242188 27.070312 Z M 43.242188 26.300781 C 43.476562 26.300781 43.6875 26.246094 43.867188 26.132812 C 44.046875 26.019531 44.191406 25.867188 44.292969 25.667969 C 44.398438 25.46875 44.453125 25.242188 44.453125 24.996094 C 44.453125 24.746094 44.398438 24.523438 44.292969 24.328125 C 44.191406 24.128906 44.046875 23.976562 43.867188 23.863281 C 43.6875 23.75 43.476562 23.695312 43.242188 23.695312 C 43.011719 23.695312 42.804688 23.75 42.617188 23.863281 C 42.4375 23.976562 42.292969 24.128906 42.1875 24.328125 C 42.082031 24.523438 42.03125 24.746094 42.03125 24.996094 C 42.03125 25.242188 42.082031 25.46875 42.1875 25.667969 C 42.292969 25.867188 42.4375 26.019531 42.617188 26.132812 C 42.804688 26.246094 43.011719 26.300781 43.242188 26.300781 Z M 43.242188 26.300781 " fill-opacity="1" fill-rule="nonzero"/><path fill="#000000" d="M 46.121094 26.984375 L 46.121094 23.011719 L 46.914062 23.011719 L 46.914062 23.8125 L 46.84375 23.695312 C 46.929688 23.4375 47.070312 23.25 47.265625 23.136719 C 47.464844 23.019531 47.699219 22.960938 47.972656 22.960938 L 48.214844 22.960938 L 48.214844 23.71875 L 47.871094 23.71875 C 47.59375 23.71875 47.371094 23.800781 47.203125 23.972656 C 47.035156 24.140625 46.953125 24.378906 46.953125 24.691406 L 46.953125 26.984375 Z M 46.121094 26.984375 " fill-opacity="1" fill-rule="nonzero"/><path fill="#000000" d="M 48.78125 21.425781 L 49.613281 21.425781 L 49.613281 26.984375 L 48.78125 26.984375 Z M 48.78125 21.425781 " fill-opacity="1" fill-rule="nonzero"/><path fill="#000000" d="M 52.417969 27.070312 C 52.035156 27.070312 51.691406 26.980469 51.386719 26.800781 C 51.089844 26.613281 50.851562 26.363281 50.675781 26.050781 C 50.503906 25.738281 50.417969 25.386719 50.417969 24.996094 C 50.417969 24.601562 50.507812 24.25 50.683594 23.9375 C 50.859375 23.625 51.097656 23.375 51.394531 23.195312 C 51.695312 23.015625 52.03125 22.925781 52.410156 22.925781 C 52.726562 22.925781 53.007812 22.988281 53.253906 23.113281 C 53.496094 23.242188 53.691406 23.417969 53.832031 23.644531 L 53.707031 23.835938 L 53.707031 21.425781 L 54.53125 21.425781 L 54.53125 26.984375 L 53.746094 26.984375 L 53.746094 26.175781 L 53.839844 26.332031 C 53.703125 26.570312 53.507812 26.753906 53.253906 26.878906 C 53 27.007812 52.71875 27.070312 52.417969 27.070312 Z M 52.496094 26.300781 C 52.726562 26.300781 52.933594 26.246094 53.113281 26.132812 C 53.300781 26.019531 53.445312 25.867188 53.546875 25.667969 C 53.65625 25.46875 53.707031 25.242188 53.707031 24.996094 C 53.707031 24.746094 53.65625 24.523438 53.546875 24.328125 C 53.445312 24.128906 53.300781 23.976562 53.113281 23.863281 C 52.933594 23.75 52.726562 23.695312 52.496094 23.695312 C 52.265625 23.695312 52.058594 23.75 51.875 23.863281 C 51.6875 23.976562 51.542969 24.128906 51.441406 24.328125 C 51.335938 24.523438 51.285156 24.746094 51.285156 24.996094 C 51.285156 25.242188 51.335938 25.46875 51.441406 25.667969 C 51.542969 25.867188 51.683594 26.019531 51.867188 26.132812 C 52.050781 26.246094 52.261719 26.300781 52.496094 26.300781 Z M 52.496094 26.300781 " fill-opacity="1" fill-rule="nonzero"/><path fill="#000000" d="M 55.710938 23.476562 L 55.710938 23.070312 C 55.875 23.03125 55.996094 22.960938 56.085938 22.859375 C 56.175781 22.75 56.226562 22.621094 56.246094 22.46875 L 55.859375 22.46875 L 55.859375 21.515625 L 56.703125 21.515625 L 56.703125 22.140625 C 56.703125 22.496094 56.621094 22.792969 56.453125 23.027344 C 56.285156 23.257812 56.039062 23.40625 55.710938 23.476562 Z M 55.710938 23.476562 " fill-opacity="1" fill-rule="nonzero"/><path fill="#000000" d="M 59.375 27.070312 C 58.96875 27.070312 58.613281 26.972656 58.304688 26.769531 C 58 26.570312 57.789062 26.300781 57.664062 25.964844 L 58.304688 25.664062 C 58.410156 25.886719 58.558594 26.066406 58.742188 26.199219 C 58.933594 26.332031 59.144531 26.394531 59.375 26.394531 C 59.570312 26.394531 59.730469 26.351562 59.851562 26.265625 C 59.976562 26.175781 60.035156 26.054688 60.035156 25.90625 C 60.035156 25.808594 60.007812 25.726562 59.957031 25.667969 C 59.902344 25.605469 59.832031 25.554688 59.75 25.515625 C 59.671875 25.476562 59.589844 25.445312 59.507812 25.425781 L 58.882812 25.25 C 58.539062 25.152344 58.285156 25.007812 58.113281 24.8125 C 57.945312 24.609375 57.863281 24.378906 57.863281 24.113281 C 57.863281 23.875 57.925781 23.664062 58.046875 23.488281 C 58.167969 23.308594 58.335938 23.167969 58.554688 23.070312 C 58.769531 22.972656 59.011719 22.925781 59.28125 22.925781 C 59.640625 22.925781 59.964844 23.015625 60.25 23.195312 C 60.53125 23.371094 60.734375 23.621094 60.851562 23.9375 L 60.210938 24.238281 C 60.132812 24.046875 60.007812 23.894531 59.835938 23.78125 C 59.671875 23.671875 59.484375 23.613281 59.273438 23.613281 C 59.089844 23.613281 58.945312 23.660156 58.839844 23.746094 C 58.730469 23.828125 58.679688 23.941406 58.679688 24.078125 C 58.679688 24.167969 58.703125 24.246094 58.75 24.3125 C 58.800781 24.371094 58.863281 24.417969 58.941406 24.457031 C 59.019531 24.492188 59.101562 24.523438 59.183594 24.546875 L 59.832031 24.738281 C 60.15625 24.832031 60.410156 24.976562 60.585938 25.179688 C 60.761719 25.375 60.851562 25.609375 60.851562 25.882812 C 60.851562 26.117188 60.785156 26.324219 60.660156 26.507812 C 60.539062 26.683594 60.367188 26.820312 60.144531 26.925781 C 59.925781 27.023438 59.667969 27.070312 59.375 27.070312 Z M 59.375 27.070312 " fill-opacity="1" fill-rule="nonzero"/><path fill="#000000" d="M 63.378906 26.984375 L 63.746094 25.707031 L 62.867188 25.707031 L 62.867188 24.972656 L 63.953125 24.972656 L 64.371094 23.519531 L 63.488281 23.519531 L 63.488281 22.785156 L 64.582031 22.785156 L 64.949219 21.515625 L 65.792969 21.515625 L 65.425781 22.785156 L 66.75 22.785156 L 67.109375 21.515625 L 67.953125 21.515625 L 67.59375 22.785156 L 68.472656 22.785156 L 68.472656 23.519531 L 67.378906 23.519531 L 66.960938 24.972656 L 67.84375 24.972656 L 67.84375 25.707031 L 66.75 25.707031 L 66.390625 26.984375 L 65.546875 26.984375 L 65.90625 25.707031 L 64.589844 25.707031 L 64.222656 26.984375 Z M 64.796875 24.972656 L 66.117188 24.972656 L 66.535156 23.519531 L 65.214844 23.519531 Z M 64.796875 24.972656 " fill-opacity="1" fill-rule="nonzero"/><path fill="#000000" d="M 70.164062 26.984375 L 70.164062 22.25 L 69.113281 22.25 L 69.113281 21.515625 L 71.019531 21.515625 L 71.019531 26.984375 Z M 70.164062 26.984375 " fill-opacity="1" fill-rule="nonzero"/><path fill="#000000" d="M 73.59375 26.984375 L 73.59375 21.515625 L 75.582031 21.515625 C 75.949219 21.515625 76.273438 21.582031 76.550781 21.71875 C 76.832031 21.851562 77.046875 22.046875 77.203125 22.308594 C 77.367188 22.5625 77.445312 22.867188 77.445312 23.226562 C 77.445312 23.601562 77.351562 23.925781 77.160156 24.195312 C 76.976562 24.464844 76.722656 24.660156 76.40625 24.78125 L 77.667969 26.984375 L 76.683594 26.984375 L 75.339844 24.597656 L 75.90625 24.929688 L 74.460938 24.929688 L 74.460938 26.984375 Z M 74.460938 24.15625 L 75.597656 24.15625 C 75.796875 24.15625 75.972656 24.117188 76.117188 24.039062 C 76.265625 23.960938 76.378906 23.855469 76.457031 23.71875 C 76.539062 23.574219 76.582031 23.410156 76.582031 23.21875 C 76.582031 23.027344 76.539062 22.863281 76.457031 22.726562 C 76.378906 22.585938 76.265625 22.476562 76.117188 22.402344 C 75.972656 22.324219 75.796875 22.285156 75.597656 22.285156 L 74.460938 22.285156 Z M 74.460938 24.15625 " fill-opacity="1" fill-rule="nonzero"/><path fill="#000000" d="M 79.957031 27.070312 C 79.5625 27.070312 79.210938 26.980469 78.902344 26.800781 C 78.597656 26.613281 78.359375 26.363281 78.1875 26.050781 C 78.015625 25.734375 77.933594 25.378906 77.933594 24.988281 C 77.933594 24.585938 78.015625 24.230469 78.1875 23.921875 C 78.363281 23.613281 78.601562 23.371094 78.894531 23.195312 C 79.1875 23.015625 79.519531 22.925781 79.890625 22.925781 C 80.191406 22.925781 80.457031 22.976562 80.691406 23.078125 C 80.925781 23.179688 81.125 23.324219 81.285156 23.503906 C 81.449219 23.679688 81.570312 23.882812 81.652344 24.113281 C 81.742188 24.34375 81.785156 24.589844 81.785156 24.847656 C 81.785156 24.910156 81.78125 24.976562 81.777344 25.046875 C 81.773438 25.113281 81.761719 25.179688 81.75 25.238281 L 78.585938 25.238281 L 78.585938 24.574219 L 81.277344 24.574219 L 80.882812 24.875 C 80.929688 24.636719 80.914062 24.425781 80.832031 24.238281 C 80.753906 24.046875 80.628906 23.898438 80.464844 23.789062 C 80.304688 23.679688 80.113281 23.621094 79.890625 23.621094 C 79.671875 23.621094 79.476562 23.679688 79.304688 23.789062 C 79.132812 23.898438 79 24.054688 78.90625 24.261719 C 78.816406 24.460938 78.777344 24.707031 78.796875 24.996094 C 78.773438 25.261719 78.808594 25.5 78.90625 25.699219 C 79.011719 25.898438 79.152344 26.054688 79.332031 26.167969 C 79.519531 26.28125 79.730469 26.335938 79.964844 26.335938 C 80.203125 26.335938 80.40625 26.285156 80.574219 26.175781 C 80.746094 26.070312 80.878906 25.929688 80.976562 25.757812 L 81.652344 26.089844 C 81.574219 26.273438 81.453125 26.441406 81.285156 26.59375 C 81.125 26.742188 80.929688 26.859375 80.699219 26.945312 C 80.472656 27.03125 80.226562 27.070312 79.957031 27.070312 Z M 79.957031 27.070312 " fill-opacity="1" fill-rule="nonzero"/><path fill="#000000" d="M 84.3125 27.027344 C 83.898438 27.027344 83.574219 26.910156 83.34375 26.675781 C 83.113281 26.441406 83 26.109375 83 25.683594 L 83 23.761719 L 82.300781 23.761719 L 82.300781 23.011719 L 82.410156 23.011719 C 82.597656 23.011719 82.742188 22.957031 82.84375 22.851562 C 82.949219 22.742188 83 22.597656 83 22.410156 L 83 22.101562 L 83.828125 22.101562 L 83.828125 23.011719 L 84.730469 23.011719 L 84.730469 23.761719 L 83.828125 23.761719 L 83.828125 25.648438 C 83.828125 25.785156 83.851562 25.902344 83.894531 26 C 83.9375 26.09375 84.007812 26.167969 84.105469 26.21875 C 84.203125 26.269531 84.332031 26.292969 84.488281 26.292969 C 84.527344 26.292969 84.570312 26.292969 84.621094 26.285156 C 84.671875 26.28125 84.714844 26.277344 84.761719 26.273438 L 84.761719 26.984375 C 84.691406 26.992188 84.617188 27.003906 84.53125 27.011719 C 84.449219 27.023438 84.375 27.027344 84.3125 27.027344 Z M 84.3125 27.027344 " fill-opacity="1" fill-rule="nonzero"/><path fill="#000000" d="M 85.570312 26.984375 L 85.570312 23.011719 L 86.363281 23.011719 L 86.363281 23.8125 L 86.289062 23.695312 C 86.378906 23.4375 86.519531 23.25 86.714844 23.136719 C 86.910156 23.019531 87.144531 22.960938 87.417969 22.960938 L 87.660156 22.960938 L 87.660156 23.71875 L 87.316406 23.71875 C 87.042969 23.71875 86.820312 23.800781 86.648438 23.972656 C 86.484375 24.140625 86.398438 24.378906 86.398438 24.691406 L 86.398438 26.984375 Z M 85.570312 26.984375 " fill-opacity="1" fill-rule="nonzero"/><path fill="#000000" d="M 90.09375 27.070312 C 89.699219 27.070312 89.34375 26.980469 89.035156 26.800781 C 88.734375 26.613281 88.496094 26.363281 88.324219 26.050781 C 88.152344 25.734375 88.066406 25.378906 88.066406 24.988281 C 88.066406 24.585938 88.152344 24.230469 88.324219 23.921875 C 88.5 23.613281 88.734375 23.371094 89.03125 23.195312 C 89.324219 23.015625 89.65625 22.925781 90.027344 22.925781 C 90.328125 22.925781 90.59375 22.976562 90.828125 23.078125 C 91.0625 23.179688 91.261719 23.324219 91.421875 23.503906 C 91.582031 23.679688 91.707031 23.882812 91.789062 24.113281 C 91.878906 24.34375 91.921875 24.589844 91.921875 24.847656 C 91.921875 24.910156 91.917969 24.976562 91.914062 25.046875 C 91.910156 25.113281 91.898438 25.179688 91.886719 25.238281 L 88.722656 25.238281 L 88.722656 24.574219 L 91.414062 24.574219 L 91.019531 24.875 C 91.066406 24.636719 91.050781 24.425781 90.96875 24.238281 C 90.890625 24.046875 90.765625 23.898438 90.601562 23.789062 C 90.4375 23.679688 90.246094 23.621094 90.027344 23.621094 C 89.808594 23.621094 89.613281 23.679688 89.441406 23.789062 C 89.269531 23.898438 89.136719 24.054688 89.042969 24.261719 C 88.949219 24.460938 88.914062 24.707031 88.933594 24.996094 C 88.910156 25.261719 88.945312 25.5 89.042969 25.699219 C 89.148438 25.898438 89.289062 26.054688 89.46875 26.167969 C 89.65625 26.28125 89.867188 26.335938 90.101562 26.335938 C 90.339844 26.335938 90.542969 26.285156 90.710938 26.175781 C 90.882812 26.070312 91.015625 25.929688 91.113281 25.757812 L 91.789062 26.089844 C 91.710938 26.273438 91.589844 26.441406 91.421875 26.59375 C 91.261719 26.742188 91.066406 26.859375 90.835938 26.945312 C 90.609375 27.03125 90.363281 27.070312 90.09375 27.070312 Z M 90.09375 27.070312 " fill-opacity="1" fill-rule="nonzero"/><path fill="#000000" d="M 93.882812 27.070312 C 93.613281 27.070312 93.378906 27.023438 93.171875 26.933594 C 92.972656 26.835938 92.816406 26.703125 92.703125 26.535156 C 92.589844 26.363281 92.535156 26.164062 92.535156 25.933594 C 92.535156 25.71875 92.582031 25.523438 92.671875 25.355469 C 92.769531 25.183594 92.921875 25.039062 93.121094 24.921875 C 93.320312 24.804688 93.574219 24.71875 93.878906 24.671875 L 95.257812 24.445312 L 95.257812 25.097656 L 94.039062 25.308594 C 93.816406 25.347656 93.65625 25.421875 93.554688 25.523438 C 93.453125 25.621094 93.398438 25.746094 93.398438 25.90625 C 93.398438 26.054688 93.457031 26.179688 93.570312 26.277344 C 93.6875 26.371094 93.835938 26.417969 94.015625 26.417969 C 94.242188 26.417969 94.4375 26.371094 94.605469 26.273438 C 94.773438 26.171875 94.90625 26.042969 95 25.882812 C 95.09375 25.714844 95.140625 25.53125 95.140625 25.332031 L 95.140625 24.3125 C 95.140625 24.117188 95.066406 23.957031 94.917969 23.835938 C 94.777344 23.707031 94.585938 23.644531 94.347656 23.644531 C 94.125 23.644531 93.933594 23.703125 93.765625 23.820312 C 93.605469 23.933594 93.484375 24.078125 93.40625 24.261719 L 92.71875 23.914062 C 92.789062 23.71875 92.910156 23.546875 93.078125 23.402344 C 93.242188 23.25 93.4375 23.132812 93.65625 23.050781 C 93.882812 22.964844 94.121094 22.925781 94.367188 22.925781 C 94.683594 22.925781 94.957031 22.984375 95.199219 23.101562 C 95.441406 23.21875 95.632812 23.382812 95.761719 23.59375 C 95.902344 23.796875 95.96875 24.039062 95.96875 24.3125 L 95.96875 26.984375 L 95.175781 26.984375 L 95.175781 26.265625 L 95.34375 26.285156 C 95.253906 26.449219 95.132812 26.585938 94.984375 26.703125 C 94.84375 26.820312 94.679688 26.914062 94.492188 26.976562 C 94.3125 27.039062 94.109375 27.070312 93.882812 27.070312 Z M 93.882812 27.070312 " fill-opacity="1" fill-rule="nonzero"/><path fill="#000000" d="M 98.585938 27.027344 C 98.167969 27.027344 97.847656 26.910156 97.617188 26.675781 C 97.386719 26.441406 97.269531 26.109375 97.269531 25.683594 L 97.269531 23.761719 L 96.574219 23.761719 L 96.574219 23.011719 L 96.683594 23.011719 C 96.871094 23.011719 97.015625 22.957031 97.117188 22.851562 C 97.21875 22.742188 97.269531 22.597656 97.269531 22.410156 L 97.269531 22.101562 L 98.101562 22.101562 L 98.101562 23.011719 L 99.003906 23.011719 L 99.003906 23.761719 L 98.101562 23.761719 L 98.101562 25.648438 C 98.101562 25.785156 98.121094 25.902344 98.167969 26 C 98.210938 26.09375 98.28125 26.167969 98.378906 26.21875 C 98.476562 26.269531 98.605469 26.292969 98.761719 26.292969 C 98.800781 26.292969 98.84375 26.292969 98.894531 26.285156 C 98.941406 26.28125 98.988281 26.277344 99.03125 26.273438 L 99.03125 26.984375 C 98.964844 26.992188 98.886719 27.003906 98.804688 27.011719 C 98.722656 27.023438 98.648438 27.027344 98.585938 27.027344 Z M 98.585938 27.027344 " fill-opacity="1" fill-rule="nonzero"/><path fill="#000000" d="M 103.121094 27.070312 C 102.777344 27.070312 102.460938 27.007812 102.167969 26.878906 C 101.875 26.75 101.625 26.570312 101.417969 26.34375 C 101.214844 26.121094 101.0625 25.859375 100.964844 25.566406 L 101.699219 25.257812 C 101.828125 25.597656 102.023438 25.855469 102.277344 26.035156 C 102.53125 26.21875 102.824219 26.308594 103.160156 26.308594 C 103.355469 26.308594 103.527344 26.277344 103.671875 26.21875 C 103.820312 26.15625 103.933594 26.070312 104.011719 25.957031 C 104.09375 25.84375 104.136719 25.714844 104.136719 25.566406 C 104.136719 25.367188 104.078125 25.207031 103.964844 25.089844 C 103.851562 24.972656 103.6875 24.878906 103.46875 24.8125 L 102.4375 24.488281 C 102.027344 24.359375 101.714844 24.167969 101.5 23.90625 C 101.285156 23.644531 101.175781 23.335938 101.175781 22.984375 C 101.175781 22.675781 101.253906 22.40625 101.402344 22.175781 C 101.554688 21.941406 101.765625 21.757812 102.027344 21.625 C 102.296875 21.492188 102.601562 21.425781 102.945312 21.425781 C 103.273438 21.425781 103.570312 21.484375 103.839844 21.601562 C 104.109375 21.714844 104.339844 21.871094 104.53125 22.074219 C 104.726562 22.273438 104.867188 22.507812 104.957031 22.769531 L 104.238281 23.085938 C 104.128906 22.796875 103.960938 22.574219 103.730469 22.417969 C 103.507812 22.261719 103.242188 22.183594 102.945312 22.183594 C 102.765625 22.183594 102.605469 22.214844 102.46875 22.277344 C 102.332031 22.335938 102.222656 22.425781 102.144531 22.542969 C 102.070312 22.65625 102.035156 22.789062 102.035156 22.9375 C 102.035156 23.113281 102.089844 23.273438 102.203125 23.410156 C 102.316406 23.546875 102.488281 23.648438 102.71875 23.71875 L 103.671875 24.019531 C 104.109375 24.148438 104.4375 24.339844 104.65625 24.589844 C 104.875 24.835938 104.988281 25.140625 104.988281 25.507812 C 104.988281 25.8125 104.90625 26.082031 104.742188 26.316406 C 104.585938 26.550781 104.371094 26.738281 104.089844 26.875 C 103.8125 27.003906 103.488281 27.070312 103.121094 27.070312 Z M 103.121094 27.070312 " fill-opacity="1" fill-rule="nonzero"/><path fill="#000000" d="M 105.878906 26.984375 L 105.878906 23.011719 L 106.707031 23.011719 L 106.707031 26.984375 Z M 105.878906 22.46875 L 105.878906 21.515625 L 106.707031 21.515625 L 106.707031 22.46875 Z M 105.878906 22.46875 " fill-opacity="1" fill-rule="nonzero"/><path fill="#000000" d="M 109.394531 27.027344 C 108.980469 27.027344 108.65625 26.910156 108.425781 26.675781 C 108.195312 26.441406 108.082031 26.109375 108.082031 25.683594 L 108.082031 23.761719 L 107.382812 23.761719 L 107.382812 23.011719 L 107.492188 23.011719 C 107.679688 23.011719 107.824219 22.957031 107.925781 22.851562 C 108.03125 22.742188 108.082031 22.597656 108.082031 22.410156 L 108.082031 22.101562 L 108.910156 22.101562 L 108.910156 23.011719 L 109.8125 23.011719 L 109.8125 23.761719 L 108.910156 23.761719 L 108.910156 25.648438 C 108.910156 25.785156 108.933594 25.902344 108.976562 26 C 109.019531 26.09375 109.089844 26.167969 109.1875 26.21875 C 109.285156 26.269531 109.414062 26.292969 109.570312 26.292969 C 109.609375 26.292969 109.652344 26.292969 109.703125 26.285156 C 109.75 26.28125 109.796875 26.277344 109.84375 26.273438 L 109.84375 26.984375 C 109.773438 26.992188 109.699219 27.003906 109.613281 27.011719 C 109.53125 27.023438 109.457031 27.027344 109.394531 27.027344 Z M 109.394531 27.027344 " fill-opacity="1" fill-rule="nonzero"/><g clip-path="url(#df6a3416b8)"><path fill="#000000" d="M 112.445312 27.070312 C 112.046875 27.070312 111.695312 26.980469 111.386719 26.800781 C 111.085938 26.613281 110.847656 26.363281 110.675781 26.050781 C 110.503906 25.734375 110.417969 25.378906 110.417969 24.988281 C 110.417969 24.585938 110.503906 24.230469 110.675781 23.921875 C 110.851562 23.613281 111.085938 23.371094 111.378906 23.195312 C 111.675781 23.015625 112.007812 22.925781 112.378906 22.925781 C 112.675781 22.925781 112.945312 22.976562 113.179688 23.078125 C 113.414062 23.179688 113.613281 23.324219 113.773438 23.503906 C 113.933594 23.679688 114.058594 23.882812 114.140625 24.113281 C 114.226562 24.34375 114.273438 24.589844 114.273438 24.847656 C 114.273438 24.910156 114.269531 24.976562 114.265625 25.046875 C 114.261719 25.113281 114.25 25.179688 114.234375 25.238281 L 111.070312 25.238281 L 111.070312 24.574219 L 113.765625 24.574219 L 113.371094 24.875 C 113.417969 24.636719 113.402344 24.425781 113.316406 24.238281 C 113.238281 24.046875 113.117188 23.898438 112.953125 23.789062 C 112.789062 23.679688 112.597656 23.621094 112.378906 23.621094 C 112.160156 23.621094 111.960938 23.679688 111.792969 23.789062 C 111.621094 23.898438 111.488281 24.054688 111.394531 24.261719 C 111.300781 24.460938 111.265625 24.707031 111.285156 24.996094 C 111.261719 25.261719 111.296875 25.5 111.394531 25.699219 C 111.496094 25.898438 111.640625 26.054688 111.820312 26.167969 C 112.007812 26.28125 112.21875 26.335938 112.453125 26.335938 C 112.691406 26.335938 112.894531 26.285156 113.0625 26.175781 C 113.234375 26.070312 113.367188 25.929688 113.464844 25.757812 L 114.140625 26.089844 C 114.0625 26.273438 113.941406 26.441406 113.773438 26.59375 C 113.613281 26.742188 113.417969 26.859375 113.1875 26.945312 C 112.960938 27.03125 112.714844 27.070312 112.445312 27.070312 Z M 112.445312 27.070312 " fill-opacity="1" fill-rule="nonzero"/></g></svg>