<svg width="400" height="400" viewBox="0 0 400 400" fill="none" xmlns="http://www.w3.org/2000/svg">
<mask id="mask0_65_152" style="mask-type:luminance" maskUnits="userSpaceOnUse" x="189" y="191" width="30" height="30">
<path d="M218.926 191H189V221H218.926V191Z" fill="white"/>
</mask>
<g mask="url(#mask0_65_152)">
<path d="M203.963 206C208.095 206 211.445 202.642 211.445 198.5C211.445 194.358 208.095 191 203.963 191C199.831 191 196.482 194.358 196.482 198.5C196.482 202.642 199.831 206 203.963 206Z" fill="white" fill-opacity="0.5"/>
<path d="M196.482 213.5C200.613 213.5 203.963 210.142 203.963 206C203.963 201.858 200.613 198.5 196.482 198.5C192.35 198.5 189 201.858 189 206C189 210.142 192.35 213.5 196.482 213.5Z" fill="white" fill-opacity="0.5"/>
<path d="M211.445 213.5C215.576 213.5 218.926 210.142 218.926 206C218.926 201.858 215.576 198.5 211.445 198.5C207.313 198.5 203.963 201.858 203.963 206C203.963 210.142 207.313 213.5 211.445 213.5Z" fill="white" fill-opacity="0.5"/>
<path d="M209.253 218.803C213.385 218.803 216.735 215.445 216.735 211.303C216.735 207.161 213.385 203.803 209.253 203.803C205.121 203.803 201.772 207.161 201.772 211.303C201.772 215.445 205.121 218.803 209.253 218.803Z" fill="white" fill-opacity="0.5"/>
<path d="M198.673 218.803C202.805 218.803 206.154 215.445 206.154 211.303C206.154 207.161 202.805 203.803 198.673 203.803C194.541 203.803 191.191 207.161 191.191 211.303C191.191 215.445 194.541 218.803 198.673 218.803Z" fill="white" fill-opacity="0.5"/>
<path d="M203.963 221C208.095 221 211.445 217.642 211.445 213.5C211.445 209.358 208.095 206 203.963 206C199.831 206 196.482 209.358 196.482 213.5C196.482 217.642 199.831 221 203.963 221Z" fill="white" fill-opacity="0.5"/>
<path d="M198.673 208.197C202.805 208.197 206.154 204.839 206.154 200.697C206.154 196.555 202.805 193.197 198.673 193.197C194.541 193.197 191.191 196.555 191.191 200.697C191.191 204.839 194.541 208.197 198.673 208.197Z" fill="white" fill-opacity="0.5"/>
<path d="M209.253 208.197C213.385 208.197 216.735 204.839 216.735 200.697C216.735 196.555 213.385 193.197 209.253 193.197C205.121 193.197 201.772 196.555 201.772 200.697C201.772 204.839 205.121 208.197 209.253 208.197Z" fill="white" fill-opacity="0.5"/>
</g>
<path d="M240.428 216L231.86 196.4H235.808L243.452 214.124H241.184L248.912 196.4H252.552L244.012 216H240.428ZM260.808 204.548H270.552V207.544H260.808V204.548ZM261.088 212.948H272.148V216H257.448V196.4H271.756V199.452H261.088V212.948ZM279.005 216V196.4H287.573C289.701 196.4 291.568 196.811 293.173 197.632C294.779 198.453 296.029 199.592 296.925 201.048C297.821 202.504 298.269 204.221 298.269 206.2C298.269 208.16 297.821 209.877 296.925 211.352C296.029 212.808 294.779 213.947 293.173 214.768C291.568 215.589 289.701 216 287.573 216H279.005ZM282.645 212.92H287.405C288.88 212.92 290.149 212.64 291.213 212.08C292.296 211.52 293.127 210.736 293.705 209.728C294.303 208.72 294.601 207.544 294.601 206.2C294.601 204.837 294.303 203.661 293.705 202.672C293.127 201.664 292.296 200.88 291.213 200.32C290.149 199.76 288.88 199.48 287.405 199.48H282.645V212.92ZM301.893 216L310.713 196.4H314.297L323.145 216H319.337L311.749 198.332H313.205L305.645 216H301.893ZM305.953 211.464L306.933 208.608H317.517L318.497 211.464H305.953Z" fill="white"/>
</svg>
