<svg width="1800" height="400" viewBox="0 0 1800 400" fill="none" xmlns="http://www.w3.org/2000/svg">
<g clip-path="url(#clip0_58_63)">
<circle cx="200" cy="100" r="100" fill="#3E6A41" fill-opacity="0.7"/>
<circle cx="100" cy="200" r="100" fill="#3E6A41" fill-opacity="0.7"/>
<circle cx="300" cy="200" r="100" fill="#3E6A41" fill-opacity="0.7"/>
<circle cx="270.71" cy="270.71" r="100" fill="#3E6A41" fill-opacity="0.7"/>
<circle cx="129.29" cy="270.71" r="100" fill="#3E6A41" fill-opacity="0.7"/>
<circle cx="200" cy="300" r="100" fill="#3E6A41" fill-opacity="0.7"/>
<circle cx="129.29" cy="129.29" r="100" fill="#3E6A41" fill-opacity="0.7"/>
<circle cx="270.71" cy="129.29" r="100" fill="#3E6A41" fill-opacity="0.7"/>
<path d="M620.4 343L498 63H554.4L663.6 316.2H631.2L741.6 63H793.6L671.6 343H620.4ZM911.538 179.4H1050.74V222.2H911.538V179.4ZM915.538 299.4H1073.54V343H863.538V63H1067.94V106.6H915.538V299.4ZM1171.51 343V63H1293.91C1324.31 63 1350.97 68.8667 1373.91 80.6C1396.84 92.3333 1414.71 108.6 1427.51 129.4C1440.31 150.2 1446.71 174.733 1446.71 203C1446.71 231 1440.31 255.533 1427.51 276.6C1414.71 297.4 1396.84 313.667 1373.91 325.4C1350.97 337.133 1324.31 343 1293.91 343H1171.51ZM1223.51 299H1291.51C1312.57 299 1330.71 295 1345.91 287C1361.37 279 1373.24 267.8 1381.51 253.4C1390.04 239 1394.31 222.2 1394.31 203C1394.31 183.533 1390.04 166.733 1381.51 152.6C1373.24 138.2 1361.37 127 1345.91 119C1330.71 111 1312.57 107 1291.51 107H1223.51V299ZM1498.47 343L1624.47 63H1675.67L1802.07 343H1747.67L1639.27 90.6H1660.07L1552.07 343H1498.47ZM1556.47 278.2L1570.47 237.4H1721.67L1735.67 278.2H1556.47Z" fill="#406B42"/>
</g>
<defs>
<clipPath id="clip0_58_63">
<rect width="1800" height="400" fill="white"/>
</clipPath>
</defs>
</svg>
